HIERARCHY
ROOT Hips
{
	OFFSET 0.00000 0.00000 0.00000
	CHANNELS 6 Xposition Yposition Zposition Zrotation Yrotation Xrotation 
	JOINT LHipJoint
	{
		OFFSET 0 0 0
		CHANNELS 3 Zrotation Yrotation Xrotation
		JOINT LeftHip
		{
			OFFSET 1.36337 -1.57426 1.11036
			CHANNELS 3 Zrotation Yrotation Xrotation
			JOINT LeftKnee
			{
				OFFSET 2.38468 -6.55187 0.00000
				CHANNELS 3 Zrotation Yrotation Xrotation
				JOINT LeftAnkle
				{
					OFFSET 2.37166 -6.51609 0.00000
					CHANNELS 3 Zrotation Yrotation Xrotation
					JOINT LeftToe
					{
						OFFSET 0.29078 -0.79891 2.01393
						CHANNELS 3 Zrotation Yrotation Xrotation
						End Site
						{
							OFFSET 0.00000 -0.00000 1.07924
						}
					}
				}
			}
		}
	}
	JOINT RHipJoint
	{
		OFFSET 0 0 0
		CHANNELS 3 Zrotation Yrotation Xrotation
		JOINT RightHip
		{
			OFFSET -1.36349 -1.57426 1.11036
			CHANNELS 3 Zrotation Yrotation Xrotation
			JOINT RightKnee
			{
				OFFSET -2.29562 -6.30717 0.00000
				CHANNELS 3 Zrotation Yrotation Xrotation
				JOINT RightAnkle
				{
					OFFSET -2.40985 -6.62100 0.00000
					CHANNELS 3 Zrotation Yrotation Xrotation
					JOINT RightToe
					{
						OFFSET -0.23197 -0.63733 1.92232
						CHANNELS 3 Zrotation Yrotation Xrotation
						End Site
						{
							OFFSET -0.00000 -0.00000 1.01562
						}
					}
				}
			}
		}
	}
	JOINT lowerback
	{
		OFFSET 0 0 0
		CHANNELS 3 Zrotation Yrotation Xrotation
		JOINT Chest
		{
			OFFSET -0.08565 2.03602 -0.24562
			CHANNELS 3 Zrotation Yrotation Xrotation
			JOINT Chest2
			{
				OFFSET -0.00036 2.05693 0.00216
				CHANNELS 3 Zrotation Yrotation Xrotation
				JOINT lowerneck
				{
					OFFSET 0 0 0
					CHANNELS 3 Zrotation Yrotation Xrotation
					JOINT Neck
					{
						OFFSET -0.03664 1.69515 0.31789
						CHANNELS 3 Zrotation Yrotation Xrotation
						JOINT Head
						{
							OFFSET 0.00932 1.70181 -0.46013
							CHANNELS 3 Zrotation Yrotation Xrotation
							End Site
							{
								OFFSET 0.01243 1.77620 -0.19377
							}
						}
					}
				}
				JOINT LeftCollar
				{
					OFFSET 0 0 0
					CHANNELS 3 Zrotation Yrotation Xrotation
					JOINT LeftShoulder
					{
						OFFSET 3.74344 0.81315 -0.36647
CHANNELS 3 Zrotation Xrotation Yrotation
						JOINT LeftElbow
						{
OFFSET 0 -4.971850 -0.000000
CHANNELS 3 Zrotation Xrotation Yrotation
							JOINT LeftWrist
							{
OFFSET 0 -3.358110 0.000000
CHANNELS 3 Zrotation Xrotation Yrotation
								JOINT lhand
								{
									OFFSET 0 0 0
CHANNELS 3 Zrotation Xrotation Yrotation
									JOINT LFingers
									{
OFFSET 0 -0.622780 0.000000
CHANNELS 3 Zrotation Xrotation Yrotation
										End Site
										{
OFFSET 0 -0.502100 0.000000
										}
									}
								}
								JOINT LThumb
								{
OFFSET 0 0.000000 0.000000
CHANNELS 3 Zrotation Xrotation Yrotation
									End Site
									{
OFFSET 0 -0.509760 0.509760
									}
								}
							}
						}
					}
				}
				JOINT RightCollar
				{
					OFFSET 0 0 0
					CHANNELS 3 Zrotation Yrotation Xrotation
					JOINT RightShoulder
					{
						OFFSET -3.75385 0.50666 -0.06525
CHANNELS 3 Zrotation Xrotation Yrotation
						JOINT RightElbow
						{
OFFSET 0 -4.964930 -0.000000
CHANNELS 3 Zrotation Xrotation Yrotation
							JOINT RightWrist
							{
OFFSET 0 -3.349290 0.000000
CHANNELS 3 Zrotation Xrotation Yrotation
								JOINT rhand
								{
									OFFSET 0 0 0
CHANNELS 3 Zrotation Xrotation Yrotation
									JOINT RFingers
									{
OFFSET 0 -0.638040 0.000000
CHANNELS 3 Zrotation Xrotation Yrotation
										End Site
										{
OFFSET 0 -0.514410 0.000000
										}
									}
								}
								JOINT RThumb
								{
OFFSET 0 0.000000 0.000000
CHANNELS 3 Zrotation Xrotation Yrotation
									End Site
									{
OFFSET 0 -0.522260 0.522260
									}
								}
							}
						}
					}
				}
			}
		}
	}
}
MOTION
Frames: 7
Frame Time: 0.008333333333333333
12.375860 15.243910 2.555827 175.535644 -65.960374 -160.846821 0.000000 0.000000 0.000000 -14.849511 1.594659 -52.334727 11.888014 18.342887 65.633300 2.549847 0.201370 -30.335073 0.013569 -0.748638 -2.057438 0.000000 0.000000 0.000000 -6.682139 7.159507 -50.274840 -4.309953 -12.561430 37.748803 -0.009736 0.015643 -1.872513 -1.272399 7.147619 -20.154092 -4.051992 3.560839 39.598518 1.507538 1.521390 8.257017 3.199317 0.149005 -10.175858 -9.113919 -6.145827 -32.709236 3.568056 -5.541821 27.366087 1.764124 -2.782817 15.421452 0.000000 0.000000 0.000000 18.797286 0.731050 -53.038382 63.940186 -57.271418 37.638264 31.931378 -28.969930 8.665068 0.000000 0.000000 0.000000 -7.125000 0.000000 0.000000 3.598207 19.810183 2.169509 0.000000 0.000000 0.000000 -11.419170 -7.749168 35.710377 -79.098386 -59.545727 -50.573335 -21.908542 -18.720031 30.916300 0.000000 0.000000 0.000000 7.125000 0.000000 0.000000 11.702478 62.448735 -4.998054
12.397167 15.224709 2.448244 175.604890 -65.596346 -160.401596 0.000000 0.000000 0.000000 -14.353115 1.555421 -52.952577 11.997040 18.389413 65.979444 2.529518 0.605883 -30.345686 0.028400 -1.087961 -2.990805 0.000000 0.000000 0.000000 -6.312510 7.128438 -51.604748 -4.543429 -12.850387 38.811069 -0.009635 0.754300 -1.748749 -1.048470 6.511012 -18.274713 -3.838177 3.562901 39.306807 1.410829 1.596294 8.408512 2.955337 0.169983 -9.906748 -8.443825 -5.306689 -33.232780 2.719626 -4.325162 27.657819 1.565340 -2.341994 15.518749 0.000000 0.000000 0.000000 18.908912 1.436446 -52.774435 64.519515 -57.398644 38.125999 31.788480 -29.526199 9.273830 0.000000 0.000000 0.000000 -7.125000 0.000000 0.000000 3.439039 19.116157 2.126965 0.000000 0.000000 0.000000 -11.612321 -9.273296 36.809723 -80.060672 -59.623236 -51.403174 -21.789723 -19.164644 30.327404 0.000000 0.000000 0.000000 7.125000 0.000000 0.000000 11.437031 61.832048 -4.717505
12.409760 15.204644 2.340713 174.413092 -65.748576 -158.813638 0.000000 0.000000 0.000000 -14.314833 0.993677 -53.378720 12.045933 18.409966 66.134299 2.508995 0.971123 -30.347447 0.038103 -1.259745 -3.463795 0.000000 0.000000 0.000000 -6.498705 6.651804 -52.754434 -4.817691 -13.174885 40.027897 -0.013309 1.274668 -2.100995 -0.875569 5.964568 -16.681860 -3.734488 3.314465 39.304159 1.305981 1.342368 8.298216 2.893685 0.068711 -10.006737 -7.754926 -4.261619 -33.321110 1.594366 -2.778798 27.892349 1.319947 -1.816826 15.505549 0.000000 0.000000 0.000000 18.753847 2.488088 -52.417127 64.794960 -57.457855 38.358057 31.991256 -30.634085 9.927193 0.000000 0.000000 0.000000 -7.125000 0.000000 0.000000 3.517393 18.332826 2.236718 0.000000 0.000000 0.000000 -12.204769 -10.384769 38.339178 -81.545533 -59.728143 -52.684852 -21.861126 -19.990711 30.376538 0.000000 0.000000 0.000000 7.125000 0.000000 0.000000 11.388334 61.899135 -4.715318
12.431421 15.180469 2.221892 173.714195 -66.211218 -157.866175 0.000000 0.000000 0.000000 -13.982440 0.562762 -53.571718 12.080562 18.424469 66.243897 2.506477 0.892567 -30.304675 0.038199 -1.261840 -3.469624 0.000000 0.000000 0.000000 -6.480955 6.358146 -53.706385 -5.146827 -13.546306 41.451263 -0.022809 1.614062 -2.738389 -0.766480 5.590179 -15.599911 -3.170179 3.042479 39.688360 1.143435 1.179379 8.341698 2.490244 -0.016817 -10.058681 -7.242265 -3.469436 -33.857659 0.789782 -1.559225 28.011979 1.162098 -1.388938 15.586089 0.000000 0.000000 0.000000 18.859832 3.006831 -52.094960 65.148010 -57.532428 38.655870 32.686607 -32.672489 10.795379 0.000000 0.000000 0.000000 -7.125000 0.000000 0.000000 3.909514 17.231543 2.584099 0.000000 0.000000 0.000000 -12.532834 -11.930926 39.701228 -82.692644 -59.797085 -53.675942 -21.898104 -20.558557 30.894983 0.000000 0.000000 0.000000 7.125000 0.000000 0.000000 11.700442 62.424951 -4.990700
12.465831 15.152401 2.086529 174.152392 -66.645315 -157.617569 0.000000 0.000000 0.000000 -13.134411 0.634032 -54.445447 12.189392 18.469593 66.587940 2.481882 0.356721 -29.976530 0.040595 -1.300132 -3.575033 0.000000 0.000000 0.000000 -6.143743 6.617976 -55.086325 -5.533004 -13.959656 43.076624 -0.038646 1.736263 -3.514743 -0.735012 5.477333 -15.275105 -2.536811 2.864347 39.553061 0.957628 1.198749 8.396213 1.952948 -0.012712 -9.938106 -6.520899 -2.697286 -34.122319 -0.003379 -0.514839 27.947660 0.937326 -1.004317 15.551631 0.000000 0.000000 0.000000 19.381174 3.616702 -51.629369 65.957481 -57.698858 39.339412 33.815441 -35.230248 11.473352 0.000000 0.000000 0.000000 -7.125000 0.000000 0.000000 4.610360 16.280686 3.143298 0.000000 0.000000 0.000000 -12.392448 -14.001846 41.049593 -82.996058 -59.813763 -53.938244 -22.695789 -20.815289 32.012426 0.000000 0.000000 0.000000 7.125000 0.000000 0.000000 11.575376 63.743779 -5.295694
12.494125 15.105986 1.948059 173.332394 -67.241693 -155.906927 0.000000 0.000000 0.000000 -12.821773 0.546068 -55.774248 12.379890 18.546611 67.187885 2.464351 -0.340114 -29.649441 0.045116 -1.370995 -3.770266 0.000000 0.000000 0.000000 -6.284851 6.259538 -56.920440 -5.991951 -14.419472 44.947341 -0.061471 2.128636 -4.420787 -0.666260 5.219096 -14.534732 -2.296255 2.639581 38.895819 0.697737 1.033648 8.493091 1.619116 -0.077420 -9.594176 -6.188883 -2.206476 -34.249861 -0.107421 0.073118 27.661312 0.970919 -0.730440 15.419296 0.000000 0.000000 0.000000 19.782147 4.454734 -51.028863 66.900158 -57.884328 40.137013 35.324574 -38.627905 12.674651 0.000000 0.000000 0.000000 -7.125000 0.000000 0.000000 5.474084 14.611544 3.942825 0.000000 0.000000 0.000000 -12.196959 -16.637360 42.303712 -81.963330 -59.753912 -53.045871 -22.520991 -21.771968 32.423232 0.000000 0.000000 0.000000 7.125000 0.000000 0.000000 12.096967 64.102732 -5.639538
12.533084 15.047693 1.799614 172.973426 -67.929646 -155.104564 0.000000 0.000000 0.000000 -12.196723 0.814931 -56.838453 12.587002 18.627778 67.837671 2.375287 -0.921819 -28.930080 0.045425 -1.375659 -3.783075 0.000000 0.000000 0.000000 -6.206770 6.167794 -58.412355 -6.553866 -14.942257 47.162180 -0.094286 2.523034 -5.464404 -0.627495 5.068782 -14.104815 -1.961068 2.657391 38.947199 0.576385 1.158710 8.638348 1.262989 -0.027753 -9.443368 -5.921265 -2.028537 -34.245994 -0.090001 0.188092 27.137019 0.960545 -0.630783 15.171672 0.000000 0.000000 0.000000 20.024733 4.877828 -50.680767 67.557843 -58.008579 40.694452 37.606699 -41.111222 13.471543 0.000000 0.000000 0.000000 -7.125000 0.000000 0.000000 6.884408 13.243876 5.162302 0.000000 0.000000 0.000000 -12.141520 -19.603146 42.974136 -80.628274 -59.665285 -51.893022 -22.928191 -22.803113 32.452384 0.000000 0.000000 0.000000 7.125000 0.000000 0.000000 11.637124 64.241941 -5.461867
